<svg width="48" height="48" viewBox="0 0 48 48" fill="none" xmlns="http://www.w3.org/2000/svg">
<circle opacity="0.2" cx="24" cy="24" r="24" fill="#F19D2A"/>
<g clip-path="url(#clip0)">
<path d="M23.999 12.9744C23.533 12.9744 23.1553 13.3521 23.1553 13.8181C23.1553 14.2841 23.533 14.6619 23.999 14.6619C26.7909 14.6619 29.0624 16.9329 29.0624 19.7244C29.0624 20.1903 29.4401 20.5681 29.9061 20.5681C30.3721 20.5681 30.7499 20.1903 30.7499 19.7244C30.7499 16.0024 27.7215 12.9744 23.999 12.9744Z" fill="#F19D2A"/>
<path d="M21.825 9.82661C18.013 10.6232 14.922 13.6845 14.1087 17.5203C13.422 20.7592 14.2682 24.0111 16.4306 26.4419C17.4875 27.6301 18.0937 29.1985 18.0937 30.7494V32.4369C18.0937 33.5596 18.8287 34.5134 19.8427 34.8438C20.1761 36.814 21.8861 38.3993 23.9999 38.3993C26.1132 38.3993 27.8237 36.8145 28.1572 34.8438C29.1712 34.5134 29.9062 33.5596 29.9062 32.4368V30.7493C29.9062 29.1954 30.5144 27.6458 31.6186 26.386C33.2348 24.5422 34.1249 22.1763 34.1249 19.7244C34.1249 13.3363 28.2778 8.47852 21.825 9.82661ZM23.9999 36.7119C22.9153 36.7119 21.9644 35.9655 21.6132 34.9625H26.3866C26.0355 35.9655 25.0846 36.7119 23.9999 36.7119ZM28.2187 32.4369C28.2187 32.9021 27.8402 33.2806 27.3749 33.2806H20.6249C20.1597 33.2806 19.7812 32.9021 19.7812 32.4369V31.5931H28.2187V32.4369ZM30.3496 25.2738C29.1728 26.6163 28.4488 28.2352 28.2651 29.9056H19.735C19.5515 28.2343 18.8293 26.5995 17.6915 25.3203C15.8894 23.2944 15.1852 20.579 15.7595 17.8703C16.43 14.7083 19.0062 12.1396 22.1702 11.4785C27.5716 10.3497 32.4374 14.406 32.4374 19.7244C32.4374 21.7669 31.696 23.7377 30.3496 25.2738Z" fill="#F19D2A"/>
<path d="M12.1313 19.7244H10.4438C9.97787 19.7244 9.6001 20.1021 9.6001 20.5681C9.6001 21.0341 9.97787 21.4119 10.4438 21.4119H12.1313C12.5973 21.4119 12.9751 21.0341 12.9751 20.5681C12.9751 20.1021 12.5973 19.7244 12.1313 19.7244Z" fill="#F19D2A"/>
<path d="M12.4808 15.5058L11.2875 14.3126C10.9581 13.9831 10.4238 13.9831 10.0943 14.3126C9.76479 14.6421 9.76479 15.1763 10.0943 15.5058L11.2875 16.699C11.617 17.0285 12.1513 17.0286 12.4808 16.699C12.8103 16.3695 12.8103 15.8353 12.4808 15.5058Z" fill="#F19D2A"/>
<path d="M12.4808 24.4376C12.1513 24.1081 11.617 24.1081 11.2875 24.4376L10.0943 25.6308C9.76479 25.9603 9.76479 26.4945 10.0943 26.824C10.4238 27.1535 10.958 27.1536 11.2875 26.824L12.4808 25.6308C12.8103 25.3013 12.8103 24.7671 12.4808 24.4376Z" fill="#F19D2A"/>
<path d="M37.5562 19.7244H35.8687C35.4027 19.7244 35.0249 20.1021 35.0249 20.5681C35.0249 21.0341 35.4027 21.4119 35.8687 21.4119H37.5562C38.0221 21.4119 38.3999 21.0341 38.3999 20.5681C38.3999 20.1021 38.0221 19.7244 37.5562 19.7244Z" fill="#F19D2A"/>
<path d="M37.9061 14.3126C37.5766 13.9831 37.0423 13.9831 36.7128 14.3126L35.5196 15.5058C35.1901 15.8353 35.1901 16.3695 35.5196 16.699C35.8491 17.0285 36.3833 17.0285 36.7128 16.699L37.9061 15.5058C38.2356 15.1763 38.2356 14.6421 37.9061 14.3126Z" fill="#F19D2A"/>
<path d="M37.9061 25.6308L36.7128 24.4376C36.3834 24.1081 35.8491 24.1081 35.5196 24.4376C35.1901 24.7671 35.1901 25.3013 35.5196 25.6308L36.7128 26.824C37.0423 27.1535 37.5765 27.1535 37.9061 26.824C38.2356 26.4945 38.2356 25.9603 37.9061 25.6308Z" fill="#F19D2A"/>
</g>
<defs>
<clipPath id="clip0">
<rect width="28.8" height="28.8" fill="white" transform="translate(9.6001 9.6001)"/>
</clipPath>
</defs>
</svg>
