<svg width="48" height="48" viewBox="0 0 48 48" fill="none" xmlns="http://www.w3.org/2000/svg">
<circle opacity="0.2" cx="24" cy="24" r="24" fill="#DB4747"/>
<g clip-path="url(#clip0)">
<path d="M24.0001 36.7978C23.5901 36.7978 23.1948 36.6493 22.8867 36.3794C21.7233 35.3621 20.6016 34.4061 19.6119 33.5628L19.6069 33.5584C16.7054 31.0858 14.1999 28.9505 12.4565 26.847C10.5078 24.4955 9.6001 22.266 9.6001 19.8303C9.6001 17.4638 10.4115 15.2806 11.8848 13.6826C13.3757 12.0656 15.4213 11.175 17.6456 11.175C19.3081 11.175 20.8305 11.7006 22.1707 12.7371C22.847 13.2603 23.46 13.9005 24.0001 14.6474C24.5404 13.9005 25.1532 13.2603 25.8298 12.7371C27.1699 11.7006 28.6924 11.175 30.3548 11.175C32.5789 11.175 34.6248 12.0656 36.1156 13.6826C37.5889 15.2806 38.4001 17.4638 38.4001 19.8303C38.4001 22.266 37.4926 24.4955 35.5439 26.8468C33.8006 28.9505 31.2952 31.0856 28.3942 33.5579C27.4028 34.4026 26.2793 35.3601 25.1132 36.3799C24.8054 36.6493 24.4099 36.7978 24.0001 36.7978ZM17.6456 12.8621C15.8981 12.8621 14.2928 13.5595 13.125 14.826C11.9397 16.1116 11.2869 17.8888 11.2869 19.8303C11.2869 21.8788 12.0483 23.7109 13.7553 25.7706C15.4053 27.7615 17.8594 29.8529 20.7009 32.2745L20.7062 32.2789C21.6996 33.1255 22.8257 34.0853 23.9977 35.1101C25.1767 34.0833 26.3046 33.122 27.3 32.2741C30.1412 29.8525 32.5951 27.7615 34.2451 25.7706C35.9519 23.7109 36.7133 21.8788 36.7133 19.8303C36.7133 17.8888 36.0604 16.1116 34.8752 14.826C33.7076 13.5595 32.1021 12.8621 30.3548 12.8621C29.0747 12.8621 27.8994 13.269 26.8616 14.0715C25.9368 14.7869 25.2925 15.6913 24.9148 16.3241C24.7206 16.6495 24.3787 16.8438 24.0001 16.8438C23.6215 16.8438 23.2796 16.6495 23.0854 16.3241C22.7079 15.6913 22.0636 14.7869 21.1386 14.0715C20.1008 13.269 18.9255 12.8621 17.6456 12.8621Z" fill="#DB4747"/>
</g>
<defs>
<clipPath id="clip0">
<rect width="28.8001" height="28.8" fill="white" transform="translate(9.6001 9.6001)"/>
</clipPath>
</defs>
</svg>
